<svg xmlns="http://www.w3.org/2000/svg" viewBox="0 0 489 268" width="489" height="268"><defs><style>.cls-1{fill:#ed7203;}.cls-2{fill:#1d1d1b;}.cls-3{fill:#f2bf4f;}.cls-4{fill:#fff;}</style></defs><path class="cls-1" d="M300.13,127.76a72.45,72.45,0,0,1,9.74,37c0,32.93-20.17,59.61-45.06,59.61s-45.06-26.68-45.06-59.61a72.36,72.36,0,0,1,9.75-37c-20.92,9.22-35,26.38-35,46,0,29.38,31.46,53.2,70.29,53.2s70.3-23.82,70.3-53.2c0-19.64-14.07-36.8-35-46" transform="translate(-46.28 -50.73)"/><path class="cls-1" d="M308.46,222.18c12.92,11.4,28.67.07,18.78-14.27a64.38,64.38,0,0,1-18.78,14.27" transform="translate(-46.28 -50.73)"/><path class="cls-2" d="M264.81,120.23a89.63,89.63,0,0,0-26.95,4.07,58.2,58.2,0,0,0-10.48,20.57,95.64,95.64,0,0,1,36-7.42v81.49c.47,0,.94.09,1.4.09,10.39,0,19.84-5.36,27-14.11v-80.6a89.16,89.16,0,0,0-27-4.09" transform="translate(-46.28 -50.73)"/><path class="cls-3" d="M258.54,78.68c0-.06-.06,0,0,0Z" transform="translate(-46.28 -50.73)"/><path class="cls-3" d="M315.36,119.86,320.68,91l14.59-21.48c-.4-.27-1.11-.78-1.53-1-2.21,1.2-5,2.66-8.41,2.46,0,0-.42,15.54-9,14.31s.58-14.94,3.65-15.91a53.93,53.93,0,0,1-2.23-10.18c-.72-.31-1.19-.44-1.94-.74a18.78,18.78,0,0,1-9.21,6.34s4.58,19.07-6.78,17.15c-11.76-2,1.33-18.77,1.33-18.77s-3.29-3.63-3.6-10.38l-1.18-.22-1.17-.23c-2.78,6.15-7.18,8.31-7.18,8.31S294,81,282.34,78.51c-11.26-2.41,0-18.44,0-18.44a19,19,0,0,1-6.22-9.3c-.8,0-1.29-.05-2.07,0a54,54,0,0,1-5.84,8.64c2.5,2,5.92,18.15-2.48,16.13s-3-16.61-3-16.61c-3.22-1.06-5.3-3.47-6.91-5.4-.49.09-1.34.3-1.81.4l5.62,25.35-5.46,28.89Z" transform="translate(-46.28 -50.73)"/><path class="cls-4" d="M283.66,91.38a9.22,9.22,0,0,0-15.85-5.89l2.5,4.23a4.66,4.66,0,0,1,3.88-2.5,4.57,4.57,0,0,1,4.93,4.41c-.08,4.35-10.81,9-13.39,9.11l.29.07-.29-.07-.85,3.56,15.89,3.78.85-3.56-8.51-2C277.24,101.39,284.11,98.91,283.66,91.38Z" transform="translate(-46.28 -50.73)"/><path class="cls-4" d="M299.42,98.77a8.13,8.13,0,1,0-11.47.79A8.13,8.13,0,0,0,299.42,98.77Zm-9.87-8.59a5,5,0,1,1,.48,7A5,5,0,0,1,289.55,90.18Z" transform="translate(-46.28 -50.73)"/><path class="cls-2" d="M373.58,205.61l-.32.35a17,17,0,0,1-5.12,4.26,17.41,17.41,0,0,1-6.51,2,16.52,16.52,0,0,1-7.46-.82,17.83,17.83,0,0,1-6-3.6,19,19,0,0,1-4.18-5.49A18.42,18.42,0,0,1,342.6,189a19,19,0,0,1,2.94-6.24,18,18,0,0,1,5.13-4.75,16.37,16.37,0,0,1,7.13-2.36,17.23,17.23,0,0,1,12.66,3.65l.4.32-3.52,5-.57-.46a12.23,12.23,0,0,0-3.91-2.21,10.29,10.29,0,0,0-4.45-.49,10.45,10.45,0,0,0-4.63,1.57,11.83,11.83,0,0,0-3.34,3.23,12.66,12.66,0,0,0-1.88,4.26,13.58,13.58,0,0,0-.32,4.65,13.32,13.32,0,0,0,1.27,4.45,12.71,12.71,0,0,0,2.72,3.76,12,12,0,0,0,3.94,2.48,10.62,10.62,0,0,0,9.11-.8,12.07,12.07,0,0,0,3.37-3l.46-.57Z" transform="translate(-46.28 -50.73)"/><path class="cls-2" d="M374,174.23l6.1-.64,3.14,30,19.32-2,.62,5.9-25.42,2.66Z" transform="translate(-46.28 -50.73)"/><path class="cls-2" d="M404.89,201.3l4.2-.44-2.52-24.09-4.2.44-.62-5.89,14.45-1.52.62,5.9-4.26.44,2.53,24.09,4.25-.45.62,5.9-14.45,1.51Z" transform="translate(-46.28 -50.73)"/><path class="cls-2" d="M419.22,169.49l25.37-2.66.62,5.89-19.37,2,1.36,13,14.19-1.49.62,5.9-14.19,1.48.54,5.18,19.37-2,.62,5.89L423,205.36Z" transform="translate(-46.28 -50.73)"/><path class="cls-2" d="M448.74,166.4l10.56-1.11,12.93,29h0l-3.14-30,6-.63,3.76,35.87-10.51,1.1-13-28.9h0l3.13,29.92-6,.64Z" transform="translate(-46.28 -50.73)"/><path class="cls-2" d="M489.64,168.07l-9.69,1-.62-5.9,25.42-2.66.62,5.89-9.69,1,3.14,30-6.05.63Z" transform="translate(-46.28 -50.73)"/><path class="cls-2" d="M507.81,182.8l5.94-.63.11.56a9.29,9.29,0,0,0,2.65,5.22q2,1.81,5.82,1.41a14.9,14.9,0,0,0,2.69-.52,6.89,6.89,0,0,0,2.15-1,4.26,4.26,0,0,0,1.36-1.59,4.2,4.2,0,0,0,.33-2.29,6,6,0,0,0-.47-1.79,3.35,3.35,0,0,0-1.16-1.36,9.55,9.55,0,0,0-3.82-1.64c-1.5-.31-3-.54-4.4-.71a25,25,0,0,1-5-1.07,10.8,10.8,0,0,1-4.1-2.53,5.38,5.38,0,0,1-1.52-2.4,13.6,13.6,0,0,1-.57-2.67,9.63,9.63,0,0,1,.47-4.39,8.86,8.86,0,0,1,2.22-3.35,11.53,11.53,0,0,1,3.57-2.24,17.13,17.13,0,0,1,4.55-1.09q5.68-.6,9.24,1.93a11.07,11.07,0,0,1,4.36,7.73l.11.56-5.94.62-.16-.45a6.57,6.57,0,0,0-2.33-3.72,6.44,6.44,0,0,0-4.52-.85,12.21,12.21,0,0,0-2.18.44,6.26,6.26,0,0,0-1.82.86,3.92,3.92,0,0,0-1.19,1.32,3.21,3.21,0,0,0-.3,1.84,2.83,2.83,0,0,0,.9,1.88,5.67,5.67,0,0,0,2.11,1.12q.71.24,1.47.42c.51.12,1,.24,1.62.35s1.2.2,1.81.28,1.24.16,1.87.27a36.05,36.05,0,0,1,3.75.87,12.56,12.56,0,0,1,3.48,1.61,9.25,9.25,0,0,1,2.66,2.7,10.61,10.61,0,0,1,1.39,5.81c0,.55-.06,1.09-.11,1.62a9.55,9.55,0,0,1-1.56,4.15,12,12,0,0,1-3.28,3.14,10.18,10.18,0,0,1-3.19,1.4,27,27,0,0,1-3.33.58,18.36,18.36,0,0,1-8.07-.86,10.94,10.94,0,0,1-5.87-5,11.33,11.33,0,0,1-1.16-2.91,25.37,25.37,0,0,1-.49-3Z" transform="translate(-46.28 -50.73)"/><path class="cls-2" d="M180.19,294.22q0,12.94-7.77,18.91-6.84,5.17-20.24,5.18H149q-13.42,0-20.24-5.18-7.77-6-7.77-18.91V264.71h9.34v29.51q0,9.64,6.67,12.78,4.32,2,15.23,2,9.09,0,13.34-2.75,5.32-3.45,5.33-12V264.71h9.34Z" transform="translate(-46.28 -50.73)"/><path class="cls-2" d="M251.76,318.31l-12-.07-9-15H205.3L211,294h14.2l-9.33-15.46-24.17,39.72h-12l29.11-48.43a12.77,12.77,0,0,1,3.06-3.45,7.3,7.3,0,0,1,4.24-1.81,7,7,0,0,1,4.24,1.73,12.44,12.44,0,0,1,3.06,3.53Z" transform="translate(-46.28 -50.73)"/><polygon class="cls-2" points="212.52 213.97 212.52 267.58 258.73 267.58 258.73 258.24 221.85 258.24 221.85 213.97 212.52 213.97"/><rect class="cls-2" x="267.21" y="213.97" width="9.34" height="53.6"/><polygon class="cls-2" points="285.96 213.98 285.96 223.31 307.15 223.31 307.15 267.58 316.41 267.58 316.41 223.31 337.52 223.31 337.52 213.98 285.96 213.98"/><polygon class="cls-2" points="393.71 213.97 374.8 240.34 354.62 213.97 342.62 213.97 369.93 249.68 369.93 267.58 379.19 267.58 379.19 249.84 405.79 213.97 393.71 213.97"/><path class="cls-1" d="M498.92,283.62v34.69h-9.26V283.62q0-9.57-8.79-9.57h-7.19v-9.34h7.19q8.72,0,13.38,5.06t4.67,13.85" transform="translate(-46.28 -50.73)"/><path class="cls-2" d="M106,291.7A17.11,17.11,0,0,0,101,279a17.3,17.3,0,0,0-12.75-4.94h-15A17,17,0,0,0,55.62,291.7a16.53,16.53,0,0,0,5,12.48A17.58,17.58,0,0,0,73.28,309h15A17.63,17.63,0,0,0,101,304.18a16.5,16.5,0,0,0,5-12.48m9.26-.78q0,11.85-7.62,19.61t-19.38,7.78h-15q-11.7,0-19.34-7.78t-7.66-19.61q0-11.78,7.58-19t19.42-7.22h15q11.92,0,19.46,7.22t7.54,19" transform="translate(-46.28 -50.73)"/><polygon class="cls-1" points="34.63 248.07 56.14 267.52 70.31 267.58 48.81 248.07 34.63 248.07"/><path class="cls-4" d="M285,109l.45-2.11c0-.15,0-.29-.06-.41s-.05-.25-.09-.37-.07-.24-.11-.37l-.11-.42-.78-3.34,1.13.24.82,3.48h.07l2.16-2.83,1.14.24-2.08,2.73-.28.34-.26.29-.22.29c-.07.11-.15.22-.23.36v.05l-.45,2.06Z" transform="translate(-46.28 -50.73)"/><path class="cls-4" d="M290.11,103.24l4.65,1-.23,1.08-3.55-.77-.51,2.39,2.6.56-.23,1.08-2.6-.56L290,109l3.55.77-.23,1.08-4.65-1Z" transform="translate(-46.28 -50.73)"/><path class="cls-4" d="M297,104.72l2,.42.39,7-1.16-.25-.12-2.15-2.15-.46-1,1.91-1.15-.25Zm1,3.84-.14-2.52-.27-.06-1.15,2.24Z" transform="translate(-46.28 -50.73)"/><path class="cls-4" d="M301.29,105.64l2.21.47a1.89,1.89,0,0,1,.72.32,1.94,1.94,0,0,1,.49.54,1.92,1.92,0,0,1,.24.67,1.88,1.88,0,0,1,0,.71,1.92,1.92,0,0,1-.25.61,2.13,2.13,0,0,1-.45.5l.41.08-.73,3.54-1.11-.24.59-2.89-1.79-.38-.62,2.88-1.11-.24Zm1.65,3.08a.72.72,0,0,0,.59-.11.83.83,0,0,0,.33-.49.82.82,0,0,0-.1-.59.74.74,0,0,0-.49-.35l-1.1-.23-.33,1.54Z" transform="translate(-46.28 -50.73)"/><path class="cls-4" d="M305.19,110.76l1.09.24v.1a1.7,1.7,0,0,0,.16,1.08,1.34,1.34,0,0,0,.95.58,3.27,3.27,0,0,0,.51.07,1.23,1.23,0,0,0,.44-.06.63.63,0,0,0,.33-.2.72.72,0,0,0,.19-.38.84.84,0,0,0,0-.35.63.63,0,0,0-.12-.31,1.75,1.75,0,0,0-.59-.51c-.24-.14-.49-.27-.73-.38a4,4,0,0,1-.83-.48,1.9,1.9,0,0,1-.58-.68,1.08,1.08,0,0,1-.13-.52,2.57,2.57,0,0,1,.05-.5,2,2,0,0,1,.34-.76,1.66,1.66,0,0,1,.59-.46,2,2,0,0,1,.76-.19,3.26,3.26,0,0,1,.87.07A2.43,2.43,0,0,1,310,108a2.09,2.09,0,0,1,.33,1.62l0,.11-1.08-.24v-.09a1.27,1.27,0,0,0-.2-.79,1.19,1.19,0,0,0-.75-.41,2,2,0,0,0-.42,0,.9.9,0,0,0-.37,0,.56.56,0,0,0-.28.16.52.52,0,0,0-.16.31.45.45,0,0,0,.05.38,1,1,0,0,0,.31.33l.23.15.27.16.3.15.32.16a6.62,6.62,0,0,1,.61.37,2.21,2.21,0,0,1,.52.49,1.57,1.57,0,0,1,.32.63,1.75,1.75,0,0,1,0,.82c0,.1-.05.19-.08.29l-.12.28a1.85,1.85,0,0,1-.51.65,2.32,2.32,0,0,1-.76.36,1.8,1.8,0,0,1-.65.06,3.19,3.19,0,0,1-.63-.09,3.25,3.25,0,0,1-1.37-.62,2,2,0,0,1-.75-1.23,2.33,2.33,0,0,1,0-.58c0-.18.05-.37.09-.56Z" transform="translate(-46.28 -50.73)"/><path class="cls-2" d="M334.55,142.26l2.46-.19.63,8.06,3.36-.26-.63-8.06,2.44-.19.63,8.06,3.36-.26-.63-8.06,2.47-.19.81,10.44-14.09,1.1Z" transform="translate(-46.28 -50.73)"/><path class="cls-2" d="M350.23,137.81l2.43-.19.18,2.34-2.43.19Zm.76,9.78c-.08-1.06-.16-2.12-.22-3.18l-.21-3.16,0-.25,2.38-.19.82,10.46-2.45.2Z" transform="translate(-46.28 -50.73)"/><path class="cls-2" d="M356.28,143l-1.7.13-.18-2.4,1.7-.13-.39-5,2.44-.19.39,5,1.72-.14.19,2.4-1.72.14.44,5.68,3-.24.19,2.39-5.43.42Z" transform="translate(-46.28 -50.73)"/><path class="cls-2" d="M362.34,135.1l2.51-.2.39,5,5.94-.46.81,10.43-2.5.19-.63-8-3.44.27.63,8-2.51.19Z" transform="translate(-46.28 -50.73)"/><path class="cls-2" d="M351.56,162.06l-1.69.13-.19-2.39,1.69-.13-.38-4.94,2.44-.19.38,4.94,1.72-.14.18,2.4-1.71.13.44,5.66,3-.23.19,2.38-5.41.42Z" transform="translate(-46.28 -50.73)"/><path class="cls-2" d="M357.6,154.21l2.5-.19.39,5,5.92-.46.81,10.39-2.5.19-.62-8-3.43.26.62,8-2.49.19Z" transform="translate(-46.28 -50.73)"/><path class="cls-2" d="M378.54,164.58l-.12.34a5.11,5.11,0,0,1-.63,1.34,5.25,5.25,0,0,1-1,1.11,5.69,5.69,0,0,1-1.29.8,4.7,4.7,0,0,1-1.56.38,4.77,4.77,0,0,1-2.18-.31,5.5,5.5,0,0,1-3.4-4.66,5.16,5.16,0,0,1,.21-2,5.44,5.44,0,0,1,.9-1.8,5.57,5.57,0,0,1,1.54-1.35,4.66,4.66,0,0,1,2.09-.64,4.77,4.77,0,0,1,2.18.31,5.24,5.24,0,0,1,1.71,1.1,5.58,5.58,0,0,1,1.67,3.56,5.06,5.06,0,0,1,0,.87l0,.21-7.54.59a3.32,3.32,0,0,0,1,1.34,2.39,2.39,0,0,0,2.8.05,2.69,2.69,0,0,0,.82-.92l.08-.13Zm-2.62-2.69a3.38,3.38,0,0,0-1-1.31,2.25,2.25,0,0,0-1.6-.46,2.28,2.28,0,0,0-1.51.7,3.29,3.29,0,0,0-.83,1.46Z" transform="translate(-46.28 -50.73)"/><path class="cls-2" d="M382.49,131.9l11.89-1.23a9.69,9.69,0,0,1,7.48,2.32,10.27,10.27,0,0,1,2.33,3,10.14,10.14,0,0,1,1.09,3.6,10.35,10.35,0,0,1-.23,3.47,9.81,9.81,0,0,1-1.48,3.25l2.23-.23,2.12,19-21.76,2.26Zm13.35,12.84a3.8,3.8,0,0,0,2.78-1.54,4.27,4.27,0,0,0,.37-4.57,4.2,4.2,0,0,0-1-1.23,4.56,4.56,0,0,0-1.36-.78,3.7,3.7,0,0,0-1.63-.18l-6,.61.86,8.3Zm5.45,15.14-1.1-9.71-9.67,1,1,9.72Z" transform="translate(-46.28 -50.73)"/><path class="cls-2" d="M408.85,129.17l25-2.59.61,5.82-19.13,2,1.33,12.85,14-1.45.6,5.82-14,1.45.53,5.11,19.13-2,.6,5.82-25.05,2.6Z" transform="translate(-46.28 -50.73)"/><path class="cls-2" d="M439.78,148.27l5.87-.61.11.56a9.13,9.13,0,0,0,2.6,5.15q2,1.78,5.75,1.4a15.48,15.48,0,0,0,2.66-.51,7,7,0,0,0,2.12-1,3.92,3.92,0,0,0,1.67-3.83,5.5,5.5,0,0,0-.46-1.76,3.13,3.13,0,0,0-1.14-1.34,9.18,9.18,0,0,0-3.77-1.63c-1.48-.31-2.93-.54-4.34-.7a25.8,25.8,0,0,1-5-1.07,11,11,0,0,1-4.05-2.5,5.51,5.51,0,0,1-1.5-2.38,13.88,13.88,0,0,1-.55-2.63,9.41,9.41,0,0,1,.47-4.34,8.61,8.61,0,0,1,2.19-3.3,11.18,11.18,0,0,1,3.53-2.2,16.87,16.87,0,0,1,4.49-1.08q5.63-.58,9.13,1.92a10.88,10.88,0,0,1,4.29,7.63l.11.56-5.87.6-.15-.44a6.57,6.57,0,0,0-2.3-3.68,6.34,6.34,0,0,0-4.46-.84,11.7,11.7,0,0,0-2.15.43,6.19,6.19,0,0,0-1.81.85,3.91,3.91,0,0,0-1.17,1.3,3,3,0,0,0-.29,1.82,2.76,2.76,0,0,0,.88,1.85,5.59,5.59,0,0,0,2.08,1.11c.46.16.95.3,1.45.42s1,.23,1.6.34,1.19.21,1.79.28,1.22.16,1.85.27a32.71,32.71,0,0,1,3.69.87,12.14,12.14,0,0,1,3.44,1.59,9.71,9.71,0,0,1,4,8.41c0,.54-.07,1.08-.12,1.59a9.27,9.27,0,0,1-1.54,4.1,11.88,11.88,0,0,1-3.24,3.1,10,10,0,0,1-3.15,1.37,24.66,24.66,0,0,1-3.29.57,17.92,17.92,0,0,1-8-.86,10.72,10.72,0,0,1-5.78-5,10.23,10.23,0,0,1-1.14-2.87,25,25,0,0,1-.49-2.94Z" transform="translate(-46.28 -50.73)"/><path class="cls-2" d="M475.19,128.19l-9.56,1-.61-5.82,25.1-2.6.6,5.82-9.56,1,3.06,29.6-6,.62Z" transform="translate(-46.28 -50.73)"/></svg>